<svg width="30" height="30" viewBox="0 0 30 30" fill="none" xmlns="http://www.w3.org/2000/svg">
<path d="M19.6502 15.6487C19.3862 16.5105 18.8572 17.267 18.1383 17.8107C17.5072 18.2856 16.7562 18.5753 15.9696 18.6472C15.183 18.7191 14.392 18.5703 13.6852 18.2176C12.9785 17.8649 12.384 17.3221 11.9686 16.6503C11.5532 15.9785 11.3332 15.2042 11.3334 14.4143C11.3306 13.4924 11.6303 12.5949 12.1866 11.8597C12.7302 11.1409 13.4868 10.6118 14.3485 10.3478C14.4053 10.3304 14.4658 10.3287 14.5235 10.343C14.5811 10.3573 14.6338 10.3871 14.6758 10.4291C14.7179 10.4711 14.7476 10.5238 14.762 10.5815C14.7763 10.6392 14.7746 10.6997 14.7571 10.7565C14.5687 11.3798 14.5529 12.0425 14.7114 12.6741C14.8699 13.3057 15.1968 13.8824 15.6573 14.3428C16.1177 14.8033 16.6944 15.1302 17.326 15.2887C17.9576 15.4472 18.6203 15.4314 19.2436 15.243C19.3004 15.2255 19.3609 15.2238 19.4186 15.2381C19.4763 15.2524 19.5289 15.2822 19.571 15.3242C19.613 15.3663 19.6428 15.4189 19.6571 15.4766C19.6714 15.5343 19.6697 15.5948 19.6522 15.6516L19.6502 15.6487Z" fill="#EEEEEE"/>
<path d="M15.5 20.5185C17.0962 20.5185 18.627 19.8844 19.7557 18.7557C20.8844 17.627 21.5185 16.0962 21.5185 14.5C21.5185 12.9038 20.8844 11.3729 19.7557 10.2442C18.627 9.11554 17.0962 8.48145 15.5 8.48145C13.9038 8.48145 12.3729 9.11554 11.2442 10.2442C10.1155 11.3729 9.48145 12.9038 9.48145 14.5C9.48145 16.0962 10.1155 17.627 11.2442 18.7557C12.3729 19.8844 13.9038 20.5185 15.5 20.5185Z" stroke="#EEEEEE" stroke-width="2.5" stroke-linecap="round" stroke-linejoin="round"/>
<path d="M15.5 2V4.31481M15.5 25.1481V27.463M6.92361 6.16667L8.55556 7.79861M23.1273 22.1273L24.7593 23.7593M3 14.963H5.31481M25.6852 14.963H28M8.55556 22.1273L6.92361 23.7593M24.7593 6.16667L23.1273 7.79861" stroke="#EEEEEE" stroke-width="2.5" stroke-linecap="round" stroke-linejoin="round"/>
</svg>
