<svg width="15" height="15" viewBox="0 0 15 15" fill="none" xmlns="http://www.w3.org/2000/svg">
<path d="M2.82004 9L5.31979 11.352C5.35564 11.3858 5.38448 11.4263 5.40468 11.4712C5.42487 11.5162 5.43602 11.5646 5.43748 11.6139C5.43894 11.6631 5.43069 11.7121 5.4132 11.7582C5.39571 11.8042 5.36932 11.8464 5.33554 11.8822C5.30175 11.9181 5.26124 11.9469 5.21631 11.9671C5.17138 11.9873 5.12291 11.9985 5.07367 11.9999C5.02444 12.0014 4.97539 11.9932 4.92934 11.9757C4.88329 11.9582 4.84114 11.9318 4.80529 11.898L1.61779 8.898C1.58056 8.86294 1.55089 8.82064 1.53061 8.77369C1.51034 8.72674 1.49988 8.67614 1.49988 8.625C1.49988 8.57386 1.51034 8.52326 1.53061 8.47631C1.55089 8.42936 1.58056 8.38706 1.61779 8.352L4.80529 5.352C4.84114 5.31822 4.88329 5.29183 4.92934 5.27434C4.97539 5.25684 5.02444 5.24859 5.07367 5.25006C5.12291 5.25152 5.17138 5.26267 5.21631 5.28286C5.26124 5.30305 5.30175 5.3319 5.33554 5.36775C5.36932 5.4036 5.39571 5.44575 5.4132 5.4918C5.43069 5.53785 5.43894 5.5869 5.43748 5.63614C5.43602 5.68538 5.42487 5.73384 5.40468 5.77877C5.38448 5.8237 5.35564 5.86422 5.31979 5.898L2.82004 8.25H11.25C11.6479 8.25 12.0294 8.09196 12.3107 7.81066C12.592 7.52936 12.75 7.14782 12.75 6.75V3.375C12.75 3.27554 12.7895 3.18016 12.8599 3.10984C12.9302 3.03951 13.0256 3 13.125 3C13.2245 3 13.3199 3.03951 13.3902 3.10984C13.4605 3.18016 13.5 3.27554 13.5 3.375V6.75C13.5 7.34674 13.263 7.91903 12.841 8.34099C12.4191 8.76295 11.8468 9 11.25 9H2.82004Z" fill="#DEDEDE"/>
</svg>
