<svg width="30" height="30" viewBox="0 0 30 30" fill="none" xmlns="http://www.w3.org/2000/svg">
<g clip-path="url(#clip0_46_238)">
<path d="M15.0001 8.19165C14.7791 8.19165 14.5671 8.27945 14.4108 8.43573C14.2545 8.59201 14.1667 8.80397 14.1667 9.02498V16.2916L19.0834 19.625C19.268 19.7422 19.4912 19.7822 19.7049 19.7364C19.9187 19.6905 20.1059 19.5625 20.2261 19.3799C20.3464 19.1974 20.3901 18.9749 20.3478 18.7604C20.3055 18.5459 20.1806 18.3566 20.0001 18.2333L15.8334 15.4083V9.02498C15.8334 8.80397 15.7456 8.59201 15.5893 8.43573C15.4331 8.27945 15.2211 8.19165 15.0001 8.19165Z" fill="#DEDEDE"/>
<path d="M15.0001 1.66663C12.6195 1.67496 10.284 2.31697 8.2336 3.52669C6.18323 4.73641 4.49191 6.47022 3.33341 8.54996V4.33329C3.33341 4.11228 3.24562 3.90032 3.08934 3.74404C2.93306 3.58776 2.7211 3.49996 2.50008 3.49996C2.27907 3.49996 2.06711 3.58776 1.91083 3.74404C1.75455 3.90032 1.66675 4.11228 1.66675 4.33329V11.6666H9.00008C9.2211 11.6666 9.43306 11.5788 9.58934 11.4225C9.74562 11.2663 9.83342 11.0543 9.83342 10.8333C9.83342 10.6123 9.74562 10.4003 9.58934 10.244C9.43306 10.0878 9.2211 9.99996 9.00008 9.99996H4.45841C5.50944 7.78179 7.23331 5.95162 9.3847 4.7699C11.5361 3.58818 14.0054 3.11512 16.4412 3.41804C18.877 3.72095 21.1552 4.78441 22.9517 6.45708C24.7481 8.12974 25.9712 10.3264 26.4469 12.7344C26.9226 15.1425 26.6267 17.6392 25.6013 19.8693C24.5759 22.0995 22.8732 23.9494 20.7356 25.1558C18.5979 26.3622 16.1342 26.8637 13.6951 26.5888C11.256 26.314 8.96565 25.2768 7.15008 23.625C7.0691 23.5511 6.97436 23.4939 6.87128 23.4566C6.76819 23.4194 6.65878 23.4028 6.54928 23.4078C6.43978 23.4129 6.33235 23.4394 6.23312 23.486C6.13388 23.5325 6.04478 23.5981 5.97091 23.6791C5.89705 23.7601 5.83985 23.8548 5.8026 23.9579C5.76534 24.061 5.74875 24.1704 5.75378 24.2799C5.75881 24.3894 5.78536 24.4969 5.83191 24.5961C5.87846 24.6953 5.9441 24.7844 6.02508 24.8583C7.62687 26.3169 9.55997 27.3633 11.6571 27.9068C13.7542 28.4504 15.9522 28.4747 18.0608 27.9778C20.1695 27.4808 22.1253 26.4775 23.759 25.0547C25.3927 23.6319 26.6551 21.8325 27.437 19.8121C28.2189 17.7917 28.4967 15.6112 28.2464 13.4593C27.996 11.3074 27.2251 9.24889 26.0003 7.46192C24.7755 5.67495 23.1338 4.21334 21.2171 3.20357C19.3004 2.19379 17.1665 1.66626 15.0001 1.66663Z" fill="#DEDEDE"/>
</g>
<defs>
<clipPath id="clip0_46_238">
<rect width="30" height="30" fill="white"/>
</clipPath>
</defs>
</svg>
