<svg width="30" height="30" viewBox="0 0 30 30" fill="none" xmlns="http://www.w3.org/2000/svg">
<path d="M17.8125 13.125C17.8125 12.3791 17.5162 11.6637 16.9887 11.1363C16.4613 10.6088 15.7459 10.3125 15 10.3125C14.2541 10.3125 13.5387 10.6088 13.0113 11.1363C12.4838 11.6637 12.1875 12.3791 12.1875 13.125C12.1875 13.8709 12.4838 14.5863 13.0113 15.1137C13.5387 15.6412 14.2541 15.9375 15 15.9375C15.7459 15.9375 16.4613 15.6412 16.9887 15.1137C17.5162 14.5863 17.8125 13.8709 17.8125 13.125ZM26.25 13.125C26.25 18.5138 20.4431 24.405 17.1731 27.2962C16.5752 27.8302 15.8016 28.1254 15 28.1254C14.1984 28.1254 13.4248 27.8302 12.8269 27.2962C9.55688 24.405 3.75 18.5138 3.75 13.125C3.75 11.6476 4.04099 10.1847 4.60636 8.81981C5.17172 7.4549 6.00039 6.21471 7.04505 5.17005C8.08971 4.12539 9.3299 3.29672 10.6948 2.73136C12.0597 2.16599 13.5226 1.875 15 1.875C16.4774 1.875 17.9403 2.16599 19.3052 2.73136C20.6701 3.29672 21.9103 4.12539 22.955 5.17005C23.9996 6.21471 24.8283 7.4549 25.3936 8.81981C25.959 10.1847 26.25 11.6476 26.25 13.125ZM24.375 13.125C24.375 10.6386 23.3873 8.25403 21.6291 6.49587C19.871 4.73772 17.4864 3.75 15 3.75C12.5136 3.75 10.129 4.73772 8.37087 6.49587C6.61272 8.25403 5.625 10.6386 5.625 13.125C5.625 15.2025 6.77813 17.6156 8.56875 20.0306C10.32 22.3894 12.4819 24.4875 14.0681 25.8919C14.3234 26.1232 14.6555 26.2514 15 26.2514C15.3445 26.2514 15.6766 26.1232 15.9319 25.8919C17.5181 24.4875 19.6819 22.3912 21.4313 20.0306C23.2219 17.6156 24.375 15.2025 24.375 13.125Z" fill="#DEDEDE"/>
</svg>
