<svg width="93" height="443" viewBox="0 0 93 443" fill="none" xmlns="http://www.w3.org/2000/svg">
<path d="M91 441C91 441 28.6809 394.996 7.16556 296.624C-14.3498 198.253 37.491 154.123 50.2768 148.62M50.2768 148.62C55.0713 145.868 65.9598 145.419 73.4509 151.372C83.8391 159.627 83.8391 170.634 80.6427 173.386C77.7299 175.893 68.6561 177.055 60.6651 168.799C53.4049 161.299 52.738 158.71 50.2768 148.62ZM50.2768 148.62C44.683 125.689 45.5897 107.712 73.4509 75.4114C103.839 40.1811 60.6651 2 60.6651 2M60.6651 2L58.5 18M60.6651 2L77.5 4" stroke="#EEEEEE" stroke-opacity="0.85" stroke-width="3" stroke-linecap="round"/>
</svg>
